<?xml version="1.0" encoding="UTF-8"?>
<svg version="1.1" xmlns="http://www.w3.org/2000/svg" width="225" height="225">
<path d="M0 0 C1.36721753 -0.00977617 2.73441894 -0.0220855 4.10159302 -0.03672791 C7.80443912 -0.06828453 11.50630767 -0.06188183 15.20922232 -0.04664826 C18.30555113 -0.0374807 21.40170235 -0.04721046 24.49802029 -0.05698699 C31.80613837 -0.0798787 39.11378448 -0.07233882 46.421875 -0.04492188 C53.94876453 -0.01713298 61.47446366 -0.03646012 69.00125301 -0.07979757 C75.47457528 -0.11563001 81.94753152 -0.12410562 88.42093861 -0.11040515 C92.28232549 -0.10237778 96.1430463 -0.10407028 100.0043602 -0.13126564 C103.63780593 -0.15549469 107.26960294 -0.14530925 110.90293503 -0.10927773 C112.86227632 -0.09804279 114.82172158 -0.12108966 116.78094482 -0.14535522 C123.9705972 -0.0339227 128.0648676 0.84351756 133.22697639 5.99930286 C134.59423828 7.79223633 134.59423828 7.79223633 135.59423828 10.79223633 C136.58423828 11.12223633 137.57423828 11.45223633 138.59423828 11.79223633 C138.26423828 13.11223633 137.93423828 14.43223633 137.59423828 15.79223633 C128.68423828 15.79223633 119.77423828 15.79223633 110.59423828 15.79223633 C109.60423828 13.31723633 109.60423828 13.31723633 108.59423828 10.79223633 C107.15934019 10.65686858 105.72076721 10.5600649 104.28173828 10.47973633 C103.48123047 10.42172852 102.68072266 10.3637207 101.85595703 10.30395508 C101.10958984 10.46508789 100.36322266 10.6262207 99.59423828 10.79223633 C99.18483002 11.61396332 98.77542175 12.43569031 98.35360718 13.28231812 C96.59423828 15.79223633 96.59423828 15.79223633 93.72354126 16.42715454 C91.97078384 16.43312149 91.97078384 16.43312149 90.18261719 16.43920898 C89.53672134 16.44797058 88.8908255 16.45673218 88.22535706 16.46575928 C86.08982162 16.48776841 83.95635732 16.47319555 81.82080078 16.45629883 C80.33490604 16.45966745 78.84901398 16.46452045 77.36312866 16.47079468 C74.24751577 16.4781686 71.13261943 16.4674482 68.01708984 16.4440918 C64.02967852 16.41565164 60.04395333 16.43197198 56.05660439 16.46195412 C52.98694245 16.4800564 49.91767755 16.47425515 46.84800339 16.46131516 C45.37844009 16.45798658 43.90884039 16.46204902 42.43931961 16.47371292 C40.38013156 16.48646639 38.32363669 16.46698849 36.26464844 16.43920898 C34.50950424 16.43324203 34.50950424 16.43324203 32.71890259 16.42715454 C28.70696568 15.61194639 27.34317989 13.72423973 24.59423828 10.79223633 C20.95597966 10.53812065 20.95597966 10.53812065 17.59423828 11.79223633 C17.00461304 12.80193481 17.00461304 12.80193481 16.40307617 13.83203125 C14.59423828 15.79223633 14.59423828 15.79223633 10.88891602 16.26220703 C9.35182965 16.26833281 7.81455093 16.25217955 6.27783203 16.21801758 C5.46556656 16.21472946 4.65330109 16.21144135 3.81642151 16.20805359 C2.10075867 16.19763577 0.38513105 16.17769076 -1.33032227 16.14892578 C-3.96178453 16.10484483 -6.59233531 16.08749043 -9.22412109 16.07543945 C-10.89014993 16.0620156 -12.5561675 16.04709269 -14.22216797 16.03051758 C-15.01176407 16.02313065 -15.80136017 16.01574371 -16.61488342 16.00813293 C-22.16903077 15.9106018 -22.16903077 15.9106018 -24.40576172 14.79223633 C-24.40576172 11.79223633 -24.40576172 11.79223633 -22.28076172 9.47973633 C-21.33201172 8.59286133 -20.38326172 7.70598633 -19.40576172 6.79223633 C-18.63295868 5.76314651 -17.86015564 4.7340567 -17.06393433 3.67378235 C-12.38065928 -0.96884913 -6.19528876 -0.05138273 0 0 Z " fill="#A5CA33" transform="translate(55.40576171875,46.207763671875)"/>
<path d="M0 0 C13.53 0 27.06 0 41 0 C41.66 1.32 42.32 2.64 43 4 C53.73546066 4.06952072 64.47086773 4.12282187 75.20650768 4.15543652 C80.19154501 4.17109019 85.17642829 4.19232311 90.16137695 4.22631836 C94.97243577 4.2589223 99.78334644 4.27685526 104.59450722 4.28463173 C106.42972457 4.29017337 108.26493386 4.30099483 110.10008812 4.31719017 C112.67131426 4.33897825 115.24192877 4.34196636 117.81323242 4.34057617 C118.9504348 4.35675491 118.9504348 4.35675491 120.11061096 4.3732605 C125.01569734 4.34457763 128.46781884 3.53218116 132 0 C134.07262076 -0.08767112 136.14820294 -0.10695873 138.22265625 -0.09765625 C139.48271484 -0.09443359 140.74277344 -0.09121094 142.04101562 -0.08789062 C143.38151109 -0.07953403 144.72200588 -0.07106907 146.0625 -0.0625 C147.40689942 -0.0574866 148.7513006 -0.05292342 150.09570312 -0.04882812 C153.39717941 -0.03699488 156.69856803 -0.02050971 160 0 C160 3.54404336 159.39010515 4.10267905 157.125 6.6875 C156.59132812 7.31011719 156.05765625 7.93273437 155.5078125 8.57421875 C154 10 154 10 152 10 C151.79375 10.639375 151.5875 11.27875 151.375 11.9375 C150 14 150 14 147.47071838 14.62081909 C143.32412956 15.0738398 139.26121575 15.13970836 135.09350586 15.12939453 C134.21571976 15.13114685 133.33793365 15.13289917 132.43354797 15.13470459 C129.52729309 15.13910594 126.62109928 15.13618325 123.71484375 15.1328125 C121.65971363 15.13348788 119.60458359 15.13445985 117.54945374 15.13571167 C113.22103116 15.13718786 108.89262917 15.13504342 104.56420898 15.13037109 C100.20189036 15.12588204 95.83961337 15.12573412 91.47729492 15.13037109 C79.94007648 15.14220285 68.40436664 15.11966454 56.86743736 15.0327034 C51.13156376 14.99567082 45.40170712 15.02272238 39.66652966 15.11754799 C36.25763097 15.1659981 32.84953849 15.17152296 29.44034004 15.16744614 C27.88752723 15.17545333 26.33466847 15.20229502 24.78257561 15.25024796 C17.47871579 15.4690273 11.57305813 15.24237561 5.9820013 10.1288166 C0 4.03050672 0 4.03050672 0 0 Z " fill="#A6CB33" transform="translate(32,165)"/>
<path d="M0 0 C1.24910156 0.02513672 1.24910156 0.02513672 2.5234375 0.05078125 C15.17235142 0.73187661 27.82308516 4.52111777 39.125 10.125 C39.8058667 10.46152588 40.4867334 10.79805176 41.18823242 11.14477539 C45.86699669 13.60099007 45.86699669 13.60099007 47 17 C34.70802397 18.09013872 22.52088518 18.05002259 10.19140625 17.87890625 C8.12776781 17.85454549 6.06412317 17.83070515 4.00047302 17.80735779 C-1.3801694 17.74510844 -6.76069926 17.6758806 -12.14123535 17.60510254 C-17.65204833 17.53387809 -23.16293989 17.46938719 -28.67382812 17.40429688 C-39.44930515 17.2760493 -50.22467513 17.14041494 -61 17 C-61.33 16.01 -61.66 15.02 -62 14 C-41.25323909 3.9720019 -23.35541601 -0.67556988 0 0 Z " fill="#A4C932" transform="translate(120,21)"/>
<path d="M0 0 C1.41202172 0.05046875 2.82404968 0.10076348 4.23608398 0.15087891 C4.92362259 0.17532074 5.61116119 0.19976257 6.3195343 0.22494507 C16.33691997 0.5637206 26.35918969 0.50428763 36.38061523 0.40869141 C36.87561523 1.39869141 36.87561523 1.39869141 37.38061523 2.40869141 C34.56071451 5.54364198 32.28398349 7.11913281 28.30249023 8.47900391 C26.81990723 8.98657227 26.81990723 8.98657227 25.30737305 9.50439453 C24.25904297 9.8440625 23.21071289 10.18373047 22.13061523 10.53369141 C21.05392578 10.88625 19.97723633 11.23880859 18.86791992 11.60205078 C10.33821441 14.29832459 2.31926794 15.96226607 -6.61938477 16.40869141 C-7.60036133 16.46541016 -8.58133789 16.52212891 -9.59204102 16.58056641 C-29.11962601 17.11777645 -47.17181588 13.10349317 -64.61938477 4.40869141 C-64.28938477 3.08869141 -63.95938477 1.76869141 -63.61938477 0.40869141 C-62.44122192 0.41848022 -62.44122192 0.41848022 -61.23925781 0.4284668 C-54.44234827 0.46018806 -47.68264545 0.31537032 -40.89355469 0.00219727 C-27.21357207 -0.61431369 -13.67806469 -0.49050975 0 0 Z " fill="#A4C734" transform="translate(126.619384765625,187.59130859375)"/>
<path d="M0 0 C1.36721753 -0.00977617 2.73441894 -0.0220855 4.10159302 -0.03672791 C7.80443912 -0.06828453 11.50630767 -0.06188183 15.20922232 -0.04664826 C18.30555113 -0.0374807 21.40170235 -0.04721046 24.49802029 -0.05698699 C31.80613837 -0.0798787 39.11378448 -0.07233882 46.421875 -0.04492188 C53.94876453 -0.01713298 61.47446366 -0.03646012 69.00125301 -0.07979757 C75.47457528 -0.11563001 81.94753152 -0.12410562 88.42093861 -0.11040515 C92.28232549 -0.10237778 96.1430463 -0.10407028 100.0043602 -0.13126564 C103.63780593 -0.15549469 107.26960294 -0.14530925 110.90293503 -0.10927773 C112.86227632 -0.09804279 114.82172158 -0.12108966 116.78094482 -0.14535522 C123.9705972 -0.0339227 128.0648676 0.84351756 133.22697639 5.99930286 C134.59423828 7.79223633 134.59423828 7.79223633 135.59423828 10.79223633 C136.58423828 11.12223633 137.57423828 11.45223633 138.59423828 11.79223633 C138.26423828 13.11223633 137.93423828 14.43223633 137.59423828 15.79223633 C128.68423828 15.79223633 119.77423828 15.79223633 110.59423828 15.79223633 C109.60423828 13.31723633 109.60423828 13.31723633 108.59423828 10.79223633 C107.15934019 10.65686858 105.72076721 10.5600649 104.28173828 10.47973633 C103.48123047 10.42172852 102.68072266 10.3637207 101.85595703 10.30395508 C101.10958984 10.46508789 100.36322266 10.6262207 99.59423828 10.79223633 C99.18483002 11.61396332 98.77542175 12.43569031 98.35360718 13.28231812 C96.59423828 15.79223633 96.59423828 15.79223633 93.72354126 16.42715454 C91.97078384 16.43312149 91.97078384 16.43312149 90.18261719 16.43920898 C89.53672134 16.44797058 88.8908255 16.45673218 88.22535706 16.46575928 C86.08982162 16.48776841 83.95635732 16.47319555 81.82080078 16.45629883 C80.33490604 16.45966745 78.84901398 16.46452045 77.36312866 16.47079468 C74.24751577 16.4781686 71.13261943 16.4674482 68.01708984 16.4440918 C64.02967852 16.41565164 60.04395333 16.43197198 56.05660439 16.46195412 C52.98694245 16.4800564 49.91767755 16.47425515 46.84800339 16.46131516 C45.37844009 16.45798658 43.90884039 16.46204902 42.43931961 16.47371292 C40.38013156 16.48646639 38.32363669 16.46698849 36.26464844 16.43920898 C34.50950424 16.43324203 34.50950424 16.43324203 32.71890259 16.42715454 C28.70696568 15.61194639 27.34317989 13.72423973 24.59423828 10.79223633 C20.95597966 10.53812065 20.95597966 10.53812065 17.59423828 11.79223633 C17.00461304 12.80193481 17.00461304 12.80193481 16.40307617 13.83203125 C14.59423828 15.79223633 14.59423828 15.79223633 10.88891602 16.26220703 C9.35182965 16.26833281 7.81455093 16.25217955 6.27783203 16.21801758 C5.46556656 16.21472946 4.65330109 16.21144135 3.81642151 16.20805359 C2.10075867 16.19763577 0.38513105 16.17769076 -1.33032227 16.14892578 C-3.96178453 16.10484483 -6.59233531 16.08749043 -9.22412109 16.07543945 C-10.89014993 16.0620156 -12.5561675 16.04709269 -14.22216797 16.03051758 C-15.01176407 16.02313065 -15.80136017 16.01574371 -16.61488342 16.00813293 C-22.16903077 15.9106018 -22.16903077 15.9106018 -24.40576172 14.79223633 C-24.40576172 11.79223633 -24.40576172 11.79223633 -22.28076172 9.47973633 C-21.33201172 8.59286133 -20.38326172 7.70598633 -19.40576172 6.79223633 C-18.63295868 5.76314651 -17.86015564 4.7340567 -17.06393433 3.67378235 C-12.38065928 -0.96884913 -6.19528876 -0.05138273 0 0 Z M-15.40576172 5.79223633 C-16.14826172 6.41098633 -16.89076172 7.02973633 -17.65576172 7.66723633 C-18.52201172 8.71911133 -18.52201172 8.71911133 -19.40576172 9.79223633 C-19.07576172 11.44223633 -18.74576172 13.09223633 -18.40576172 14.79223633 C-7.51576172 14.79223633 3.37423828 14.79223633 14.59423828 14.79223633 C15.25423828 13.14223633 15.91423828 11.49223633 16.59423828 9.79223633 C15.93423828 9.79223633 15.27423828 9.79223633 14.59423828 9.79223633 C14.09923828 8.80223633 14.09923828 8.80223633 13.59423828 7.79223633 C16.05609054 8.21452485 18.51254362 8.65419287 20.96923828 9.10473633 C21.66791016 9.22268555 22.36658203 9.34063477 23.08642578 9.4621582 C24.94278854 9.81022622 26.77221882 10.2947636 28.59423828 10.79223633 C29.25423828 11.78223633 29.91423828 12.77223633 30.59423828 13.79223633 C33.42292942 14.2323507 33.42292942 14.2323507 36.78808594 14.1328125 C38.73988266 14.13247261 38.73988266 14.13247261 40.73110962 14.13212585 C42.15684347 14.1168047 43.58257384 14.10115669 45.00830078 14.08520508 C46.46275394 14.07961076 47.91721275 14.07533989 49.37167358 14.07234192 C53.20230684 14.06088006 57.03259956 14.0314018 60.86309814 13.99822998 C64.77082716 13.9675577 68.67861112 13.9538427 72.58642578 13.9387207 C80.25585196 13.906533 87.92499744 13.85532096 95.59423828 13.79223633 C97.88468843 8.98013732 97.88468843 8.98013732 98.59423828 3.79223633 C96.28423828 4.12223633 93.97423828 4.45223633 91.59423828 4.79223633 C91.59423828 4.13223633 91.59423828 3.47223633 91.59423828 2.79223633 C78.08616748 2.72281455 64.57813892 2.66946483 51.06992626 2.63679981 C44.79793701 2.62112455 38.52606954 2.59985218 32.25415039 2.56591797 C26.20468761 2.53339111 20.15534218 2.51539734 14.10579872 2.5076046 C11.79444849 2.50204909 9.48310488 2.49120098 7.17180443 2.47504616 C3.94162341 2.45336085 0.71193121 2.4502657 -2.51831055 2.45166016 C-3.48000153 2.44087433 -4.4416925 2.4300885 -5.43252563 2.41897583 C-6.31172165 2.42309982 -7.19091766 2.42722382 -8.09675598 2.43147278 C-9.24300556 2.42732471 -9.24300556 2.42732471 -10.41241169 2.42309284 C-12.95067274 2.89314703 -13.74709096 3.8634396 -15.40576172 5.79223633 Z " fill="#A5C933" transform="translate(55.40576171875,46.207763671875)"/>
<path d="M0 0 C1.14726059 0.00142502 2.29452118 0.00285004 3.47654724 0.00431824 C4.77451736 0.00124161 6.07248749 -0.00183502 7.40979004 -0.00500488 C8.83235348 0.00189235 10.25491517 0.00915928 11.67747498 0.01676941 C13.12953653 0.01796109 14.58159887 0.0184144 16.03366089 0.01815796 C19.07766033 0.01972312 22.12154221 0.02801593 25.16551208 0.04142761 C29.07544649 0.05843264 32.9852518 0.06224155 36.89521885 0.06148243 C39.89340456 0.06175378 42.89156181 0.06722912 45.88973808 0.07448387 C47.33190127 0.07767498 48.77406768 0.07963897 50.21623421 0.08037758 C52.22749611 0.08253559 54.23874609 0.09206467 56.24998474 0.10197449 C57.96968224 0.10769218 57.96968224 0.10769218 59.72412109 0.11352539 C62.29856873 0.24723816 62.29856873 0.24723816 63.29856873 1.24723816 C63.53338565 3.4301659 63.71220195 5.6192699 63.86106873 7.80973816 C63.94485779 9.00727722 64.02864685 10.20481628 64.11497498 11.43864441 C64.17556091 12.36548035 64.23614685 13.29231628 64.29856873 14.24723816 C60.40803207 16.06241694 57.34961331 16.49578086 53.0712738 16.49015808 C51.83682022 16.49323471 50.60236664 16.49631134 49.33050537 16.4994812 C47.99303499 16.49258485 46.65556648 16.48531799 45.31809998 16.47770691 C43.93998253 16.47651393 42.56186427 16.4760622 41.18374634 16.47631836 C38.30310437 16.47475793 35.42258746 16.46649977 32.54197693 16.45304871 C28.84633704 16.43601153 25.15083376 16.43223599 21.45515919 16.43299389 C18.61306449 16.43272234 15.77099977 16.42724428 12.92891502 16.41999245 C11.5657289 16.4168076 10.20253939 16.4148388 8.83934975 16.41409874 C6.93878078 16.41193598 5.03822448 16.40239997 3.13768005 16.39250183 C2.05577896 16.38869003 0.97387787 16.38487823 -0.14080811 16.38095093 C-2.70143127 16.24723816 -2.70143127 16.24723816 -4.70143127 15.24723816 C-4.75529756 13.1225124 -4.79416198 10.99740164 -4.82643127 8.87223816 C-4.8496344 7.68887878 -4.87283752 6.50551941 -4.89674377 5.28630066 C-4.64281878 1.33522782 -3.98476431 0.3646903 0 0 Z " fill="#A6CB32" transform="translate(88.70143127441406,69.75276184082031)"/>
<path d="M0 0 C8.19690561 -0.0231271 16.39379768 -0.04091696 24.59072781 -0.05181217 C28.39651577 -0.0570402 32.20228148 -0.06413638 36.00805664 -0.07543945 C39.67792544 -0.0862712 43.34777278 -0.09227744 47.01765633 -0.09487724 C48.42074992 -0.09673097 49.82384229 -0.1003506 51.2269268 -0.10573006 C53.1856968 -0.11294419 55.1444882 -0.11340809 57.10327148 -0.11352539 C58.22023911 -0.115746 59.33720673 -0.11796661 60.48802185 -0.12025452 C63 0 63 0 64 1 C64.07271741 3.35313555 64.08370868 5.70833668 64.0625 8.0625 C64.05347656 9.35285156 64.04445313 10.64320312 64.03515625 11.97265625 C64.02355469 12.97167969 64.01195312 13.97070312 64 15 C56.66783072 15.12669211 49.33594323 15.21430617 42.00292969 15.2746582 C39.50803072 15.29981494 37.01320554 15.33394403 34.51855469 15.37719727 C30.93405972 15.43779434 27.35053837 15.46619892 23.765625 15.48828125 C22.09043793 15.52699089 22.09043793 15.52699089 20.38140869 15.56648254 C12.60931026 15.56930272 12.60931026 15.56930272 9.41210938 12.58203125 C8.71311523 11.30392578 8.71311523 11.30392578 8 10 C5.68398765 8.17758916 5.68398765 8.17758916 3.25 6.6875 C2.45078125 6.17574219 1.6515625 5.66398437 0.828125 5.13671875 C0.22484375 4.76160156 -0.3784375 4.38648437 -1 4 C-0.67 2.68 -0.34 1.36 0 0 Z " fill="#A4CA32" transform="translate(88,94)"/>
<path d="M0 0 C0.95708359 0.00222061 1.91416718 0.00444122 2.9002533 0.00672913 C3.98129837 0.00680466 5.06234344 0.00688019 6.17614746 0.00695801 C7.94018166 0.01469994 7.94018166 0.01469994 9.73985291 0.02259827 C10.93702438 0.02401321 12.13419586 0.02542816 13.36764526 0.02688599 C17.20918732 0.03250472 21.05067208 0.04506041 24.89219666 0.05775452 C27.48920102 0.0627671 30.0862063 0.06733043 32.68321228 0.07142639 C39.06539344 0.08248024 45.44754096 0.0992366 51.82969666 0.12025452 C52.52377455 3.43556205 52.96607676 6.47898273 52.95469666 9.87025452 C52.95856384 11.03814514 52.95856384 11.03814514 52.96250916 12.22962952 C52.82969666 14.12025452 52.82969666 14.12025452 51.82969666 15.12025452 C50.04977742 15.21396076 48.26612926 15.23769723 46.48374939 15.23377991 C45.34264206 15.23370438 44.20153473 15.23362885 43.02584839 15.23355103 C41.78420425 15.22838974 40.54256012 15.22322845 39.26329041 15.21791077 C37.36765099 15.21578835 37.36765099 15.21578835 35.43371582 15.21362305 C32.06844777 15.20896034 28.70324676 15.19996932 25.33799744 15.18891907 C21.90619996 15.17870298 18.47439557 15.174125 15.04258728 15.16908264 C8.30493841 15.15802832 1.56732141 15.14127162 -5.17030334 15.12025452 C-5.19572919 13.68284669 -5.21385093 12.24530846 -5.22889709 10.80775452 C-5.23977356 10.0072467 -5.25065002 9.20673889 -5.26185608 8.38197327 C-5.10439596 4.49207847 -4.33810415 0.24037037 0 0 Z " fill="#A6CA37" transform="translate(18.170303344726563,93.87974548339844)"/>
<path d="M0 0 C1.1009903 0.02009628 2.20198059 0.04019257 3.33633423 0.06089783 C5.12543716 0.10145042 5.12543716 0.10145042 6.95068359 0.14282227 C8.16863617 0.16643326 9.38658875 0.19004425 10.64144897 0.21437073 C14.5441209 0.29114476 18.44660122 0.37511009 22.34912109 0.45922852 C24.98973661 0.51243543 27.63036158 0.56517591 30.27099609 0.61743164 C36.7554905 0.74677848 43.23984179 0.88203498 49.72412109 1.02172852 C51.02501941 3.62352514 50.89252188 5.61864731 50.91162109 8.52172852 C50.92580078 9.50141602 50.93998047 10.48110352 50.95458984 11.49047852 C50.72412109 14.02172852 50.72412109 14.02172852 48.72412109 16.02172852 C46.61906433 16.2756958 46.61906433 16.2756958 43.98657227 16.28051758 C43.00182419 16.2868219 42.01707611 16.29312622 41.00248718 16.29962158 C39.4009655 16.29354889 39.4009655 16.29354889 37.76708984 16.28735352 C36.12441887 16.29022369 36.12441887 16.29022369 34.44856262 16.29315186 C32.12757132 16.29451498 29.80657243 16.29080973 27.4855957 16.2824707 C23.93667365 16.27180382 20.38826137 16.28234607 16.83935547 16.29516602 C14.58609914 16.29384384 12.33284314 16.29128025 10.07958984 16.28735352 C9.01798141 16.29140198 7.95637299 16.29545044 6.8625946 16.29962158 C5.86839005 16.29331726 4.87418549 16.28701294 3.84985352 16.28051758 C2.54318977 16.2781308 2.54318977 16.2781308 1.21012878 16.2756958 C-1.27587891 16.02172852 -1.27587891 16.02172852 -6.27587891 14.02172852 C-6.60587891 9.73172852 -6.93587891 5.44172852 -7.27587891 1.02172852 C-4.68737974 -0.27252107 -2.8965719 -0.0595186 0 0 Z " fill="#A7C939" transform="translate(20.27587890625,116.978271484375)"/>
<path d="M0 0 C17.16 0 34.32 0 52 0 C52 4.62 52 9.24 52 14 C48.67597096 14.83100726 46.39579163 15.1221541 43.04785156 15.11352539 C42.06713684 15.11344986 41.08642212 15.11337433 40.07598877 15.11329651 C39.02481873 15.10813522 37.97364868 15.10297394 36.890625 15.09765625 C35.80867859 15.0962413 34.72673218 15.09482635 33.61199951 15.09336853 C30.1579715 15.08777318 26.70400841 15.0752215 23.25 15.0625 C20.90755302 15.0574844 18.56510502 15.0529216 16.22265625 15.04882812 C10.4817487 15.03780528 4.74087899 15.02107174 -1 15 C-1.09289153 9.70518291 -0.76541303 5.35789122 0 0 Z " fill="#A7C83A" transform="translate(100,118)"/>
<path d="M0 0 C1.34160439 -0.01441132 1.34160439 -0.01441132 2.71031189 -0.02911377 C3.68319656 -0.03336365 4.65608124 -0.03761353 5.65844727 -0.04199219 C6.65111099 -0.04769226 7.64377472 -0.05339233 8.66651917 -0.05926514 C10.77066985 -0.06873031 12.87483545 -0.07525511 14.97900391 -0.07910156 C18.20769928 -0.08881558 21.43576063 -0.11982831 24.66430664 -0.15136719 C26.70401638 -0.15789596 28.7437307 -0.16314692 30.78344727 -0.16699219 C31.75430771 -0.17933899 32.72516815 -0.19168579 33.72544861 -0.20440674 C34.62300369 -0.20140564 35.52055878 -0.19840454 36.4453125 -0.1953125 C37.23727524 -0.19895813 38.02923798 -0.20260376 38.84519958 -0.20635986 C39.48611038 -0.08508728 40.12702118 0.0361853 40.78735352 0.16113281 C43.13854751 3.6879238 43.00178803 5.18992767 42.91235352 9.34863281 C42.89430664 10.4353125 42.87625977 11.52199219 42.85766602 12.64160156 C42.83446289 13.47304687 42.81125977 14.30449219 42.78735352 15.16113281 C39.76099296 16.04055893 37.07392283 16.28293957 33.92700195 16.2746582 C32.96630798 16.27458267 32.00561401 16.27450714 31.01580811 16.27442932 C29.98651184 16.26926804 28.95721558 16.26410675 27.89672852 16.25878906 C26.83697815 16.25737411 25.77722778 16.25595917 24.68536377 16.25450134 C21.3026649 16.24890663 17.92003236 16.23635506 14.53735352 16.22363281 C12.24308364 16.21861713 9.94881272 16.21405434 7.65454102 16.20996094 C2.03212257 16.19893893 -3.59025722 16.18220602 -9.21264648 16.16113281 C-10.26709141 11.76500757 -10.01253575 9.92446438 -7.83764648 5.91113281 C-7.37616211 5.03972656 -6.91467773 4.16832031 -6.43920898 3.27050781 C-4.49465594 -0.073628 -3.79759996 0.03277439 0 0 Z " fill="#A6C737" transform="translate(28.212646484375,69.8388671875)"/>
<path d="M0 0 C6.4229243 -0.02543538 12.84583553 -0.04290272 19.26879883 -0.05493164 C21.452072 -0.05994843 23.63534182 -0.06676337 25.81860352 -0.07543945 C28.96371283 -0.08762147 32.10877757 -0.09325497 35.25390625 -0.09765625 C36.2239711 -0.10281754 37.19403595 -0.10797882 38.1934967 -0.11329651 C43.24174356 -0.11371077 48.02475387 0.1312108 53 1 C53.27377394 6.38422078 53.37535297 9.54453408 50 14 C47.8441344 16.1558656 42.88390545 15.18895666 39.890625 15.203125 C38.97166443 15.20882507 38.05270386 15.21452515 37.105896 15.22039795 C35.15557004 15.22986535 33.20522796 15.2363888 31.25488281 15.24023438 C28.27640594 15.24991418 25.29862646 15.28091033 22.3203125 15.3125 C20.42708744 15.31903237 18.53385743 15.32428192 16.640625 15.328125 C15.75086975 15.3404718 14.8611145 15.3528186 13.94439697 15.36553955 C9.13308804 15.34829389 5.90347549 15.13995012 2 12 C0.56640625 10.09765625 0.56640625 10.09765625 -0.4375 8.0625 C-0.78683594 7.39347656 -1.13617188 6.72445312 -1.49609375 6.03515625 C-2.15921327 3.35697585 -1.29560609 2.35233001 0 0 Z " fill="#A6C839" transform="translate(99,141)"/>
<path d="M0 0 C1.16781006 0.00523682 2.33562012 0.01047363 3.53881836 0.01586914 C4.79887695 0.0190918 6.05893555 0.02231445 7.35717773 0.02563477 C8.6976732 0.03399136 10.03816799 0.04245632 11.37866211 0.05102539 C12.72306153 0.05603879 14.06746271 0.06060197 15.41186523 0.06469727 C18.71334151 0.07653051 22.01473014 0.09301568 25.31616211 0.11352539 C25.31616211 3.65756875 24.70626726 4.21620444 22.44116211 6.80102539 C21.90749023 7.42364258 21.37381836 8.04625977 20.82397461 8.68774414 C19.31616211 10.11352539 19.31616211 10.11352539 17.31616211 10.11352539 C17.10991211 10.75290039 16.90366211 11.39227539 16.69116211 12.05102539 C15.31616211 14.11352539 15.31616211 14.11352539 12.79084778 14.73434448 C8.62214137 15.18926157 4.53612282 15.25320969 0.34619141 15.24291992 C-0.53801987 15.24467224 -1.42223114 15.24642456 -2.33323669 15.24822998 C-5.25871753 15.25262958 -8.18413767 15.24971031 -11.10961914 15.24633789 C-13.17433178 15.24701308 -15.23904434 15.24798488 -17.30375671 15.24923706 C-21.64896394 15.25071281 -25.99415064 15.24856931 -30.33935547 15.24389648 C-35.80529026 15.2382944 -41.27117531 15.24150451 -46.73710823 15.24734879 C-71.07096521 15.26926802 -95.36754684 15.08814415 -119.68383789 14.11352539 C-119.68383789 13.78352539 -119.68383789 13.45352539 -119.68383789 13.11352539 C-79.42383789 12.78352539 -39.16383789 12.45352539 2.31616211 12.11352539 C0.99616211 11.78352539 -0.32383789 11.45352539 -1.68383789 11.11352539 C-2.17883789 10.61852539 -2.17883789 10.61852539 -2.68383789 10.11352539 C-3.34383789 10.44352539 -4.00383789 10.77352539 -4.68383789 11.11352539 C-6.51981567 10.82155624 -8.35471956 10.51956767 -10.1804657 10.16926575 C-24.00901829 7.53829136 -37.83929799 7.55532294 -51.87133789 7.42602539 C-54.38632867 7.39276905 -56.90130337 7.35827208 -59.41625977 7.32250977 C-65.5053415 7.2385756 -71.59444126 7.16984021 -77.68383789 7.11352539 C-77.68383789 6.45352539 -77.68383789 5.79352539 -77.68383789 5.11352539 C-76.83050369 5.10765915 -75.97716949 5.10179291 -75.09797668 5.0957489 C-67.04961908 5.03780563 -59.0015385 4.96571955 -50.9534502 4.87781048 C-46.81599189 4.83311428 -42.67863186 4.79385665 -38.54101562 4.76708984 C-34.54673366 4.74104915 -30.5528301 4.70064171 -26.55878258 4.65033913 C-25.03623861 4.63367551 -23.51362919 4.62215806 -21.99100685 4.61591148 C-19.85541904 4.60626451 -17.72079814 4.57820046 -15.58544922 4.54589844 C-14.37077469 4.53479538 -13.15610016 4.52369232 -11.90461731 4.51225281 C-7.13903121 3.92228076 -4.41836542 0.18689529 0 0 Z " fill="#AAC33F" transform="translate(166.683837890625,164.886474609375)"/>
<path d="M0 0 C1.49648827 -0.00472824 1.49648827 -0.00472824 3.02320862 -0.009552 C4.10343796 -0.00752777 5.1836673 -0.00550354 6.29663086 -0.00341797 C7.40123154 -0.00437469 8.50583221 -0.00533142 9.64390564 -0.00631714 C11.98167986 -0.00699847 14.31945596 -0.00514743 16.65722656 -0.00097656 C20.24996149 0.00437737 23.84257169 -0.00092577 27.43530273 -0.00732422 C29.70157905 -0.00666353 31.9678553 -0.00538256 34.23413086 -0.00341797 C35.85751122 -0.00645432 35.85751122 -0.00645432 37.51368713 -0.009552 C39.00544716 -0.00482376 39.00544716 -0.00482376 40.52734375 0 C41.40733536 0.00079559 42.28732697 0.00159119 43.19398499 0.00241089 C45.19897461 0.12939453 45.19897461 0.12939453 46.19897461 1.12939453 C46.29790401 3.2942025 46.32868561 5.46233238 46.32397461 7.62939453 C46.3278418 9.40830078 46.3278418 9.40830078 46.33178711 11.22314453 C46.19897461 14.12939453 46.19897461 14.12939453 45.19897461 15.12939453 C43.8203106 15.26879611 42.43478988 15.3414334 41.04980469 15.38574219 C40.16831253 15.41471588 39.28682037 15.44368958 38.37861633 15.47354126 C34.32830323 15.57085054 30.27817186 15.64511674 26.22705078 15.69921875 C24.09189909 15.73585563 21.95697596 15.79040298 19.82275391 15.86328125 C16.74550535 15.96681841 13.67222877 16.01116389 10.59350586 16.04345703 C9.16818291 16.1084288 9.16818291 16.1084288 7.71406555 16.17471313 C3.69415449 16.16329787 1.21838189 16.12120784 -1.74356079 13.23944092 C-4.49452942 9.30076401 -6.04635885 5.88994384 -6.80102539 1.12939453 C-4.34659691 -0.09781971 -2.74385025 0.00247845 0 0 Z " fill="#A5C932" transform="translate(24.801025390625,140.87060546875)"/>
<path d="M0 0 C14.52 0 29.04 0 44 0 C44.66 4.29 45.32 8.58 46 13 C44 15 44 15 42.09580994 15.24723816 C40.93451317 15.24510063 40.93451317 15.24510063 39.74975586 15.24291992 C38.43345436 15.24753487 38.43345436 15.24753487 37.09056091 15.25224304 C36.14157425 15.24505753 35.19258759 15.23787201 34.21484375 15.23046875 C33.24341934 15.23001053 32.27199493 15.22955231 31.27113342 15.2290802 C29.21581807 15.22605624 27.16050505 15.21816566 25.10522461 15.20581055 C21.94702095 15.18755503 18.78911027 15.18530081 15.63085938 15.18554688 C13.63801828 15.18063182 11.64517918 15.17480355 9.65234375 15.16796875 C8.70133286 15.16685593 7.75032196 15.1657431 6.77049255 15.16459656 C5.89611038 15.15821671 5.02172821 15.15183685 4.12084961 15.14526367 C2.96074623 15.13954597 2.96074623 15.13954597 1.77720642 15.13371277 C0 15 0 15 -1 14 C-1.09900199 12.02287193 -1.12970773 10.04209962 -1.125 8.0625 C-1.12757813 6.98097656 -1.13015625 5.89945312 -1.1328125 4.78515625 C-1 2 -1 2 0 0 Z " fill="#A5CA32" transform="translate(167,94)"/>
<path d="M0 0 C15.18 0 30.36 0 46 0 C47.38394981 2.76789961 46.77543675 4.47475809 46.25 7.5 C46.09015625 8.4796875 45.9303125 9.459375 45.765625 10.46875 C45 13 45 13 42 15 C40.08944702 15.24723816 40.08944702 15.24723816 37.91162109 15.24291992 C37.09422455 15.24599655 36.276828 15.24907318 35.43466187 15.25224304 C34.1173558 15.24146477 34.1173558 15.24146477 32.7734375 15.23046875 C31.41830551 15.22978142 31.41830551 15.22978142 30.03579712 15.2290802 C28.12769252 15.2260603 26.21959033 15.21818181 24.31152344 15.20581055 C21.37946924 15.18752787 18.4477303 15.18530106 15.515625 15.18554688 C13.66405975 15.18063267 11.81249665 15.17480477 9.9609375 15.16796875 C9.078685 15.16685593 8.1964325 15.1657431 7.28744507 15.16459656 C1.11605391 15.11605391 1.11605391 15.11605391 0 14 C0 9.38 0 4.76 0 0 Z " fill="#A8C83A" transform="translate(166,118)"/>
<path d="M0 0 C1.4285745 0.04234332 2.85684133 0.09600844 4.28466797 0.15869141 C5.41242142 0.19623032 5.41242142 0.19623032 6.56295776 0.23452759 C8.96804386 0.31680479 11.37231803 0.41336251 13.77685547 0.51025391 C15.40572838 0.56848571 17.03463477 0.62578915 18.66357422 0.68212891 C22.66013628 0.82239469 26.65602801 0.97547133 30.65185547 1.13525391 C31.6822706 3.08856259 32.70094477 5.04806918 33.71435547 7.01025391 C34.28283203 8.10080078 34.85130859 9.19134766 35.43701172 10.31494141 C35.83791016 11.24564453 36.23880859 12.17634766 36.65185547 13.13525391 C35.65185547 15.13525391 35.65185547 15.13525391 34.08789062 15.74975586 C30.62100059 16.29838478 27.17608978 16.29794857 23.67529297 16.30322266 C22.52560532 16.30821526 22.52560532 16.30821526 21.35269165 16.31330872 C19.73724974 16.31835974 18.12179745 16.32071761 16.50634766 16.32055664 C14.02863623 16.32275233 11.55136372 16.34095193 9.07373047 16.35986328 C7.50341949 16.36279569 5.9331064 16.36478151 4.36279297 16.36572266 C3.24872574 16.37650093 3.24872574 16.37650093 2.1121521 16.38749695 C-3.11930718 16.36409126 -3.11930718 16.36409126 -5.34814453 14.13525391 C-5.61376953 11.38525391 -5.61376953 11.38525391 -5.59814453 8.13525391 C-5.60330078 7.06275391 -5.60845703 5.99025391 -5.61376953 4.88525391 C-5.20631226 0.6668727 -4.17362925 0.16860074 0 0 Z " fill="#A6C838" transform="translate(171.34814453125,69.86474609375)"/>
<path d="M0 0 C-0.58107632 3.7602985 -1.65199496 6.53035032 -3.5625 9.8125 C-4.01753906 10.60269531 -4.47257812 11.39289063 -4.94140625 12.20703125 C-5.29074219 12.79871094 -5.64007813 13.39039063 -6 14 C-10.82380802 14.0246519 -15.64757967 14.04283693 -20.47143555 14.05493164 C-22.11369464 14.05997174 -23.75594923 14.06680378 -25.39819336 14.07543945 C-27.75375479 14.08751926 -30.10925709 14.09323139 -32.46484375 14.09765625 C-33.20339096 14.10281754 -33.94193817 14.10797882 -34.7028656 14.11329651 C-36.46898088 14.1134925 -38.23497146 14.06194719 -40 14 C-41 13 -41 13 -41.09765625 10.05859375 C-41.08605469 8.86363281 -41.07445312 7.66867188 -41.0625 6.4375 C-41.05347656 5.23996094 -41.04445312 4.04242188 -41.03515625 2.80859375 C-41.02355469 1.88175781 -41.01195312 0.95492187 -41 0 C-35.96480861 -0.1680811 -30.92945318 -0.32859004 -25.89379883 -0.48217773 C-24.1818192 -0.5354494 -22.46990192 -0.59076646 -20.75805664 -0.64819336 C-18.29326822 -0.73052001 -15.82834706 -0.80541647 -13.36328125 -0.87890625 C-12.60163162 -0.90594131 -11.83998199 -0.93297638 -11.05525208 -0.96083069 C-7.21707535 -1.06790504 -3.72799886 -0.95697118 0 0 Z " fill="#A8C73A" transform="translate(207,142)"/>
<path d="M0 0 C1.36721753 -0.00977617 2.73441894 -0.0220855 4.10159302 -0.03672791 C7.80443912 -0.06828453 11.50630767 -0.06188183 15.20922232 -0.04664826 C18.30555113 -0.0374807 21.40170235 -0.04721046 24.49802029 -0.05698699 C31.80613837 -0.0798787 39.11378448 -0.07233882 46.421875 -0.04492188 C53.94876453 -0.01713298 61.47446366 -0.03646012 69.00125301 -0.07979757 C75.47457528 -0.11563001 81.94753152 -0.12410562 88.42093861 -0.11040515 C92.28232549 -0.10237778 96.1430463 -0.10407028 100.0043602 -0.13126564 C103.63780593 -0.15549469 107.26960294 -0.14530925 110.90293503 -0.10927773 C112.86227632 -0.09804279 114.82172158 -0.12108966 116.78094482 -0.14535522 C123.9705972 -0.0339227 128.0648676 0.84351756 133.22697639 5.99930286 C134.59423828 7.79223633 134.59423828 7.79223633 135.59423828 10.79223633 C136.58423828 11.12223633 137.57423828 11.45223633 138.59423828 11.79223633 C138.26423828 13.11223633 137.93423828 14.43223633 137.59423828 15.79223633 C128.68423828 15.79223633 119.77423828 15.79223633 110.59423828 15.79223633 C109.60423828 13.81223633 109.60423828 13.81223633 108.59423828 11.79223633 C109.58423828 11.79223633 110.57423828 11.79223633 111.59423828 11.79223633 C111.59423828 12.45223633 111.59423828 13.11223633 111.59423828 13.79223633 C118.19423828 13.79223633 124.79423828 13.79223633 131.59423828 13.79223633 C131.59423828 12.14223633 131.59423828 10.49223633 131.59423828 8.79223633 C130.60423828 8.29723633 130.60423828 8.29723633 129.59423828 7.79223633 C129.59423828 6.80223633 129.59423828 5.81223633 129.59423828 4.79223633 C122.88012037 3.5698343 116.2164801 3.61859233 109.40698242 3.58691406 C108.08922821 3.57701447 106.771474 3.56711487 105.41378784 3.55691528 C101.81722867 3.53000309 98.22065656 3.50891993 94.62405324 3.4889133 C90.85908129 3.46696878 87.09414859 3.43962171 83.32920837 3.41285706 C76.207312 3.36304419 69.08539371 3.31806329 61.96345466 3.27483469 C53.85217528 3.22536452 45.74093531 3.17048281 37.6296941 3.1151551 C20.95124521 3.00151027 4.27276011 2.89463348 -12.40576172 2.79223633 C-12.73576172 3.78223633 -13.06576172 4.77223633 -13.40576172 5.79223633 C-14.06576172 6.10161133 -14.72576172 6.41098633 -15.40576172 6.72973633 C-17.58143378 7.61133747 -17.58143378 7.61133747 -18.21826172 9.79223633 C-18.59027261 11.86383757 -18.59027261 11.86383757 -17.40576172 13.79223633 C-16.64956543 13.78699951 -15.89336914 13.7817627 -15.11425781 13.77636719 C-11.66976765 13.75550909 -8.22529082 13.74254807 -4.78076172 13.72973633 C-2.99605469 13.71716797 -2.99605469 13.71716797 -1.17529297 13.7043457 C-0.02158203 13.70112305 1.13212891 13.69790039 2.32080078 13.69458008 C3.90755615 13.68672485 3.90755615 13.68672485 5.52636719 13.67871094 C8.62786174 13.79348055 11.54771486 14.2152735 14.59423828 14.79223633 C14.59423828 15.12223633 14.59423828 15.45223633 14.59423828 15.79223633 C9.36149441 15.8169155 4.12878425 15.83508636 -1.10400391 15.84716797 C-2.88493439 15.85220343 -4.66586072 15.85903214 -6.44677734 15.86767578 C-9.00342837 15.87977574 -11.56002484 15.88547242 -14.11669922 15.88989258 C-14.91570648 15.89505386 -15.71471375 15.90021515 -16.53793335 15.90553284 C-22.17801831 15.90610803 -22.17801831 15.90610803 -24.40576172 14.79223633 C-24.40576172 11.79223633 -24.40576172 11.79223633 -22.28076172 9.47973633 C-21.33201172 8.59286133 -20.38326172 7.70598633 -19.40576172 6.79223633 C-18.63295868 5.76314651 -17.86015564 4.7340567 -17.06393433 3.67378235 C-12.38065928 -0.96884913 -6.19528876 -0.05138273 0 0 Z " fill="#B2CA59" transform="translate(55.40576171875,46.207763671875)"/>
<path d="M0 0 C7.46656537 -0.0771619 14.93302505 -0.12905684 22.39990234 -0.16479492 C24.9308659 -0.17972071 27.46180434 -0.20006862 29.99267578 -0.22631836 C44.06295109 -0.36841421 57.57865023 -0.10977025 71.44042969 2.44799805 C74.83130418 3.32559653 74.83130418 3.32559653 77 2 C77 2.66 77 3.32 77 4 C82.445 4.495 82.445 4.495 88 5 C88 5.33 88 5.66 88 6 C71.08469614 6.15381373 54.16935301 6.30184937 37.25393867 6.4429636 C29.40022264 6.50861746 21.54653158 6.57617823 13.69287109 6.64819336 C6.84943022 6.71094035 0.00596956 6.77014498 -6.83753884 6.82505554 C-10.46274536 6.85426806 -14.08791668 6.88528167 -17.71306992 6.92053413 C-21.75513244 6.95977454 -25.79721846 6.99110772 -29.83935547 7.02172852 C-31.04776093 7.03467453 -32.25616638 7.04762054 -33.50119019 7.06095886 C-35.14607422 7.0715181 -35.14607422 7.0715181 -36.82418823 7.08229065 C-37.78100935 7.09058679 -38.73783047 7.09888292 -39.72364616 7.10743046 C-42 7 -42 7 -44 6 C-44 5.34 -44 4.68 -44 4 C-29.48 4 -14.96 4 0 4 C0 2.68 0 1.36 0 0 Z " fill="#A3C332" transform="translate(88,172)"/>
<path d="M0 0 C8.19690561 -0.0231271 16.39379768 -0.04091696 24.59072781 -0.05181217 C28.39651577 -0.0570402 32.20228148 -0.06413638 36.00805664 -0.07543945 C39.67792544 -0.0862712 43.34777278 -0.09227744 47.01765633 -0.09487724 C48.42074992 -0.09673097 49.82384229 -0.1003506 51.2269268 -0.10573006 C53.1856968 -0.11294419 55.1444882 -0.11340809 57.10327148 -0.11352539 C58.22023911 -0.115746 59.33720673 -0.11796661 60.48802185 -0.12025452 C63 0 63 0 64 1 C64.07271741 3.35313555 64.08370868 5.70833668 64.0625 8.0625 C64.05347656 9.35285156 64.04445313 10.64320312 64.03515625 11.97265625 C64.02355469 12.97167969 64.01195312 13.97070312 64 15 C56.66783072 15.12669211 49.33594323 15.21430617 42.00292969 15.2746582 C39.50803072 15.29981494 37.01320554 15.33394403 34.51855469 15.37719727 C30.93405972 15.43779434 27.35053837 15.46619892 23.765625 15.48828125 C22.09043793 15.52699089 22.09043793 15.52699089 20.38140869 15.56648254 C12.60931026 15.56930272 12.60931026 15.56930272 9.41210938 12.58203125 C8.71311523 11.30392578 8.71311523 11.30392578 8 10 C5.68398765 8.17758916 5.68398765 8.17758916 3.25 6.6875 C2.45078125 6.17574219 1.6515625 5.66398437 0.828125 5.13671875 C0.22484375 4.76160156 -0.3784375 4.38648437 -1 4 C-0.67 2.68 -0.34 1.36 0 0 Z M52.4921875 1.21875 C51.23125778 1.25204407 51.23125778 1.25204407 49.94485474 1.28601074 C47.25489658 1.35709417 44.56494826 1.428543 41.875 1.5 C40.05338605 1.54820111 38.23177148 1.5963785 36.41015625 1.64453125 C31.94009683 1.76274529 27.4700462 1.88128709 23 2 C22.67 2.99 22.34 3.98 22 5 C19.9375 6.1875 19.9375 6.1875 18 7 C18 8.32 18 9.64 18 11 C18.66 11 19.32 11 20 11 C20 11.66 20 12.32 20 13 C34.19 13 48.38 13 63 13 C63 9.04 63 5.08 63 1 C59.49641618 1 55.99435816 1.12542867 52.4921875 1.21875 Z " fill="#A8C93B" transform="translate(88,94)"/>
<path d="M0 0 C1.11474701 0.02220612 2.22949402 0.04441223 3.37802124 0.06729126 C4.63917755 0.08746307 5.90033386 0.10763489 7.19970703 0.12841797 C8.58125303 0.16072347 9.96279388 0.19325028 11.34432983 0.22598267 C12.7539308 0.25214607 14.16354866 0.27741338 15.57318115 0.30181885 C19.28550575 0.36850673 22.99747562 0.447391 26.70950317 0.52877808 C30.49649426 0.60966251 34.2836936 0.67906473 38.07089233 0.74942017 C45.50343634 0.88919543 52.93564308 1.04185007 60.36776733 1.20254517 C59.36776733 3.20254517 59.36776733 3.20254517 57.60032654 3.81570435 C55.24677474 4.22350984 53.03515143 4.35537589 50.64682007 4.39199829 C49.71582993 4.40871582 48.78483978 4.42543335 47.82563782 4.44265747 C46.8276265 4.45623291 45.82961517 4.46980835 44.80136108 4.48379517 C43.77092178 4.50220459 42.74048248 4.52061401 41.67881775 4.5395813 C37.27095849 4.61820923 32.86294833 4.68605142 28.45492554 4.75479126 C25.23699373 4.8065059 22.0191931 4.86375322 18.80136108 4.92129517 C17.30130775 4.94165833 17.30130775 4.94165833 15.77095032 4.96243286 C14.84311234 4.97915039 13.91527435 4.99586792 12.95932007 5.01309204 C11.73498512 5.03188416 11.73498512 5.03188416 10.48591614 5.05105591 C8.17782802 5.1282219 8.17782802 5.1282219 5.36776733 6.20254517 C5.36776733 6.86254517 5.36776733 7.52254517 5.36776733 8.20254517 C4.70776733 8.20254517 4.04776733 8.20254517 3.36776733 8.20254517 C3.69776733 9.19254517 4.02776733 10.18254517 4.36776733 11.20254517 C3.70776733 11.20254517 3.04776733 11.20254517 2.36776733 11.20254517 C2.36776733 11.86254517 2.36776733 12.52254517 2.36776733 13.20254517 C20.18776733 13.53254517 38.00776733 13.86254517 56.36776733 14.20254517 C56.36776733 14.53254517 56.36776733 14.86254517 56.36776733 15.20254517 C48.70977527 15.35627184 41.05169308 15.50445342 33.39345741 15.64550877 C29.83763367 15.71117801 26.28186812 15.77877436 22.72616577 15.85073853 C18.64064786 15.93334192 14.5550159 16.00762851 10.46932983 16.08145142 C9.18909943 16.10848648 7.90886902 16.13552155 6.58984375 16.16337585 C5.40877045 16.18347214 4.22769714 16.20356842 3.01083374 16.22427368 C1.9671463 16.24425919 0.92345886 16.26424469 -0.15185547 16.28483582 C-2.63223267 16.20254517 -2.63223267 16.20254517 -4.63223267 15.20254517 C-4.68609895 13.07781941 -4.72496337 10.95270864 -4.75723267 8.82754517 C-4.78043579 7.64418579 -4.80363892 6.46082642 -4.82754517 5.24160767 C-4.57718259 1.34596604 -3.95603054 0.30440883 0 0 Z " fill="#A7C442" transform="translate(88.63223266601563,69.79745483398438)"/>
<path d="M0 0 C14.52 0 29.04 0 44 0 C44.66 4.29 45.32 8.58 46 13 C44 15 44 15 42.09580994 15.24723816 C40.93451317 15.24510063 40.93451317 15.24510063 39.74975586 15.24291992 C38.43345436 15.24753487 38.43345436 15.24753487 37.09056091 15.25224304 C36.14157425 15.24505753 35.19258759 15.23787201 34.21484375 15.23046875 C33.24341934 15.23001053 32.27199493 15.22955231 31.27113342 15.2290802 C29.21581807 15.22605624 27.16050505 15.21816566 25.10522461 15.20581055 C21.94702095 15.18755503 18.78911027 15.18530081 15.63085938 15.18554688 C13.63801828 15.18063182 11.64517918 15.17480355 9.65234375 15.16796875 C8.70133286 15.16685593 7.75032196 15.1657431 6.77049255 15.16459656 C5.89611038 15.15821671 5.02172821 15.15183685 4.12084961 15.14526367 C2.96074623 15.13954597 2.96074623 15.13954597 1.77720642 15.13371277 C0 15 0 15 -1 14 C-1.09900199 12.02287193 -1.12970773 10.04209962 -1.125 8.0625 C-1.12757813 6.98097656 -1.13015625 5.89945312 -1.1328125 4.78515625 C-1 2 -1 2 0 0 Z M0 2 C0 5.63 0 9.26 0 13 C3.54635085 13.70927017 5.65857917 14.12309082 9.0559082 13.92993164 C9.81631912 13.88981461 10.57673004 13.84969757 11.36018372 13.80836487 C12.1655809 13.75945602 12.97097809 13.71054718 13.80078125 13.66015625 C15.0553437 13.59144569 15.0553437 13.59144569 16.33525085 13.52134705 C18.99470512 13.37433064 21.65356147 13.21854043 24.3125 13.0625 C26.12041023 12.9610084 27.92835277 12.8600905 29.73632812 12.75976562 C34.1579539 12.513155 38.57906439 12.25867682 43 12 C43 8.7 43 5.4 43 2 C28.81 2 14.62 2 0 2 Z " fill="#ACC450" transform="translate(167,94)"/>
<path d="M0 0 C1.89666526 0.08772455 3.79238993 0.19591301 5.6875 0.3125 C7.27111328 0.39951172 7.27111328 0.39951172 8.88671875 0.48828125 C12.25895644 1.04256373 14.27854581 1.95512255 17 4 C17 4.66 17 5.32 17 6 C38.45 5.67 59.9 5.34 82 5 C82.33 4.34 82.66 3.68 83 3 C83.66 3 84.32 3 85 3 C84.125 6.875 84.125 6.875 83 8 C80.9409961 8.12047846 78.8778314 8.17025852 76.81542969 8.19287109 C76.1698259 8.20104858 75.52422211 8.20922607 74.85905457 8.21765137 C72.71333758 8.24254925 70.56768707 8.25903481 68.421875 8.2734375 C67.68985115 8.27876118 66.9578273 8.28408485 66.20362091 8.28956985 C62.3270014 8.31632408 58.45041431 8.33568919 54.57373047 8.35009766 C50.57077098 8.36672638 46.56863792 8.41148121 42.56599045 8.4624691 C39.48786489 8.4961505 36.40993491 8.50767612 33.33164215 8.51332474 C31.85643468 8.52003789 30.38124011 8.53526197 28.90621185 8.55921555 C26.83751068 8.59088537 24.771029 8.59090291 22.70214844 8.58349609 C21.5260199 8.59158295 20.34989136 8.5996698 19.13812256 8.60800171 C15.10063499 7.82575076 13.75845294 5.9447501 11 3 C7.2544684 3 5.01058287 3.18501381 2.0625 5.5625 C1.711875 6.036875 1.36125 6.51125 1 7 C1.33 5.68 1.66 4.36 2 3 C1.34 3 0.68 3 0 3 C0 2.01 0 1.02 0 0 Z " fill="#AEC74D" transform="translate(69,54)"/>
<path d="M0 0 C1.41210346 0.05054 2.82421279 0.100916 4.23632812 0.15112305 C4.92387177 0.17556992 5.61141541 0.20001678 6.3197937 0.22520447 C16.3371784 0.56390809 26.35943623 0.50453175 36.38085938 0.40893555 C36.87585938 1.39893555 36.87585938 1.39893555 37.38085938 2.40893555 C36.72085938 3.39893555 36.06085938 4.38893555 35.38085938 5.40893555 C34.72085938 5.40893555 34.06085938 5.40893555 33.38085938 5.40893555 C33.38085938 4.74893555 33.38085938 4.08893555 33.38085938 3.40893555 C1.70085937 3.07893555 -29.97914062 2.74893555 -62.61914062 2.40893555 C-62.61914062 2.07893555 -62.61914062 1.74893555 -62.61914062 1.40893555 C-41.71836314 -0.49199276 -20.94985957 -0.75157115 0 0 Z " fill="#C3D951" transform="translate(126.619140625,187.591064453125)"/>
<path d="M0 0 C0 0.33 0 0.66 0 1 C-1.423125 1.37125 -1.423125 1.37125 -2.875 1.75 C-6.97791658 2.90551528 -10.84739697 4.52824033 -14.765625 6.1953125 C-17 7 -17 7 -20 7 C-20 7.66 -20 8.32 -20 9 C-21.32 9 -22.64 9 -24 9 C-24 9.66 -24 10.32 -24 11 C26.985 10.505 26.985 10.505 79 10 C79.33 9.34 79.66 8.68 80 8 C80.99 9.98 80.99 9.98 82 12 C69.70802397 13.09013872 57.52088518 13.05002259 45.19140625 12.87890625 C43.12776781 12.85454549 41.06412317 12.83070515 39.00047302 12.80735779 C33.6198306 12.74510844 28.23930074 12.6758806 22.85876465 12.60510254 C17.34795167 12.53387809 11.83706011 12.46938719 6.32617188 12.40429688 C-4.44930515 12.2760493 -15.22467513 12.14041494 -26 12 C-26.33 11.01 -26.66 10.02 -27 9 C-24.3155851 7.70157659 -21.62777896 6.41117141 -18.9375 5.125 C-18.18533203 4.76019531 -17.43316406 4.39539063 -16.65820312 4.01953125 C-4.83363971 -1.61121324 -4.83363971 -1.61121324 0 0 Z " fill="#B8CE67" transform="translate(85,26)"/>
<path d="M0 0 C1.00088654 0.00007553 2.00177307 0.00015106 3.0329895 0.00022888 C4.1163559 0.00539017 5.19972229 0.01055145 6.31591797 0.01586914 C7.42289032 0.01728409 8.52986267 0.01869904 9.67037964 0.02015686 C13.2163154 0.02576767 16.7621887 0.03832203 20.30810547 0.05102539 C22.70784414 0.056039 25.1075838 0.06060215 27.50732422 0.06469727 C33.39927272 0.07574061 39.29118463 0.09248929 45.18310547 0.11352539 C43.18310547 2.11352539 43.18310547 2.11352539 41.12033081 2.35403442 C40.27205719 2.3495932 39.42378357 2.34515198 38.54980469 2.34057617 C37.58895966 2.34042511 36.62811462 2.34027405 35.63815308 2.34011841 C34.59853424 2.32979584 33.55891541 2.31947327 32.48779297 2.30883789 C31.42521271 2.306008 30.36263245 2.3031781 29.26785278 2.30026245 C25.86449048 2.28904179 22.46138861 2.26393376 19.05810547 2.23852539 C16.75472384 2.22849803 14.45133811 2.21937176 12.14794922 2.21118164 C6.49291202 2.18909632 0.83802734 2.15560028 -4.81689453 2.11352539 C-4.32189453 3.06227539 -3.82689453 4.01102539 -3.31689453 4.98852539 C-1.81689453 8.11352539 -1.81689453 8.11352539 -1.81689453 10.11352539 C-0.82689453 10.11352539 0.16310547 10.11352539 1.18310547 10.11352539 C1.18310547 11.10352539 1.18310547 12.09352539 1.18310547 13.11352539 C15.37310547 13.44352539 29.56310547 13.77352539 44.18310547 14.11352539 C44.18310547 10.15352539 44.18310547 6.19352539 44.18310547 2.11352539 C44.84310547 2.11352539 45.50310547 2.11352539 46.18310547 2.11352539 C46.209971 4.09261937 46.22943922 6.0718151 46.24560547 8.05102539 C46.25720703 9.15317383 46.26880859 10.25532227 46.28076172 11.39086914 C46.18310547 14.11352539 46.18310547 14.11352539 45.18310547 15.11352539 C43.80444146 15.25292697 42.41892074 15.32556426 41.03393555 15.36987305 C40.15244339 15.39884674 39.27095123 15.42782043 38.36274719 15.45767212 C34.31243409 15.5549814 30.26230271 15.6292476 26.21118164 15.68334961 C24.07602995 15.71998648 21.94110681 15.77453384 19.80688477 15.84741211 C16.72963621 15.95094927 13.65635963 15.99529475 10.57763672 16.02758789 C9.15231377 16.09255966 9.15231377 16.09255966 7.69819641 16.15884399 C3.67828535 16.14742873 1.20251275 16.1053387 -1.75942993 13.22357178 C-4.51039856 9.28489487 -6.06222799 5.8740747 -6.81689453 1.11352539 C-4.35528436 -0.1172797 -2.7519246 -0.00691438 0 0 Z " fill="#ACC058" transform="translate(24.81689453125,140.886474609375)"/>
<path d="M0 0 C0.33 0 0.66 0 1 0 C1 2.31 1 4.62 1 7 C18.16 7 35.32 7 53 7 C52.34 6.67 51.68 6.34 51 6 C51 5.34 51 4.68 51 4 C52.32 4 53.64 4 55 4 C55.66 3.01 56.32 2.02 57 1 C57.38063221 3.3260857 57.71269945 5.66055264 58 8 C57 9 57 9 54.71580505 9.12025452 C53.70542679 9.11803391 52.69504852 9.11581329 51.65405273 9.11352539 C50.5129454 9.11344986 49.37183807 9.11337433 48.19615173 9.11329651 C46.9545076 9.10813522 45.71286346 9.10297394 44.43359375 9.09765625 C42.53795433 9.09553383 42.53795433 9.09553383 40.60401917 9.09336853 C37.23875111 9.08870582 33.8735501 9.0797148 30.50830078 9.06866455 C27.0765033 9.05844846 23.64469891 9.05387049 20.21289062 9.04882812 C13.47524176 9.0377738 6.73762475 9.0210171 0 9 C0 6.03 0 3.06 0 0 Z " fill="#A8BD50" transform="translate(13,100)"/>
<path d="M0 0 C0.66 0.99 1.32 1.98 2 3 C4.05925139 3.72382467 4.05925139 3.72382467 6 4 C6 3.67 6 3.34 6 3 C8.24973447 2.945862 10.49984383 2.90714509 12.75 2.875 C14.00296875 2.85179687 15.2559375 2.82859375 16.546875 2.8046875 C19.73960816 2.98527195 21.41031936 3.20230907 24 5 C24.33 5.66 24.66 6.32 25 7 C24.34 7 23.68 7 23 7 C23.33 8.32 23.66 9.64 24 11 C26.97 11.66 29.94 12.32 33 13 C33 13.33 33 13.66 33 14 C20.72943759 14.40384129 9.77712943 9.37066251 -1 4 C-0.67 2.68 -0.34 1.36 0 0 Z M13 6 C13 6.66 13 7.32 13 8 C15.31 8.33 17.62 8.66 20 9 C18.68 8.67 17.36 8.34 16 8 C16 7.34 16 6.68 16 6 C17.65 6.33 19.3 6.66 21 7 C20.34 6.01 19.68 5.02 19 4 C15.81509993 3.7226499 15.81509993 3.7226499 13 6 Z " fill="#AACA43" transform="translate(63,188)"/>
<path d="M0 0 C1.16781006 0.00523682 2.33562012 0.01047363 3.53881836 0.01586914 C4.79887695 0.0190918 6.05893555 0.02231445 7.35717773 0.02563477 C8.6976732 0.03399136 10.03816799 0.04245632 11.37866211 0.05102539 C12.72306153 0.05603879 14.06746271 0.06060197 15.41186523 0.06469727 C18.71334151 0.07653051 22.01473014 0.09301568 25.31616211 0.11352539 C25.31616211 3.65756875 24.70626726 4.21620444 22.44116211 6.80102539 C21.90749023 7.42364258 21.37381836 8.04625977 20.82397461 8.68774414 C19.31616211 10.11352539 19.31616211 10.11352539 17.31616211 10.11352539 C17.97616211 8.46352539 18.63616211 6.81352539 19.31616211 5.11352539 C19.97616211 5.11352539 20.63616211 5.11352539 21.31616211 5.11352539 C20.82116211 4.12352539 20.82116211 4.12352539 20.31616211 3.11352539 C17.21411815 2.82961404 14.11021955 2.59231157 11.00366211 2.36352539 C9.68205078 2.24170898 9.68205078 2.24170898 8.33374023 2.11743164 C5.93545632 1.95329054 3.70465045 1.83338148 1.31616211 2.11352539 C-0.46784095 4.00548514 -0.46784095 4.00548514 -1.68383789 6.11352539 C-4.38305664 6.50415039 -4.38305664 6.50415039 -7.37133789 6.36352539 C-8.36520508 6.32743164 -9.35907227 6.29133789 -10.38305664 6.25415039 C-11.14231445 6.20774414 -11.90157227 6.16133789 -12.68383789 6.11352539 C-12.07926758 5.81575195 -11.47469727 5.51797852 -10.85180664 5.21118164 C-0.61024231 0.02581303 -0.61024231 0.02581303 0 0 Z " fill="#B1C35C" transform="translate(166.683837890625,164.886474609375)"/>
<path d="M0 0 C0.66 0 1.32 0 2 0 C1.39012475 5.48887722 1.39012475 5.48887722 -0.28071594 7.67793274 C-2.42140204 9.32404293 -3.51759979 9.36470631 -6.19604492 9.34057617 C-7.03668991 9.34034958 -7.8773349 9.34012299 -8.74345398 9.33988953 C-9.64666885 9.32440567 -10.54988373 9.30892181 -11.48046875 9.29296875 C-12.40845779 9.28872391 -13.33644684 9.28447906 -14.29255676 9.28010559 C-17.25783243 9.26330662 -20.2224296 9.22565216 -23.1875 9.1875 C-25.19725581 9.17245474 -27.20702227 9.15876606 -29.21679688 9.14648438 C-34.14479286 9.11339908 -39.07228138 9.06160833 -44 9 C-42 7 -42 7 -38.46826172 6.77294922 C-36.95536669 6.77326637 -35.44244912 6.78459367 -33.9296875 6.8046875 C-33.13345978 6.8075174 -32.33723206 6.81034729 -31.51687622 6.81326294 C-28.96943237 6.8244736 -26.42233789 6.84957938 -23.875 6.875 C-22.14974465 6.88502867 -20.42448381 6.89415472 -18.69921875 6.90234375 C-14.46601086 6.92441578 -10.2330647 6.95895133 -6 7 C-5.67 5.68 -5.34 4.36 -5 3 C-5 3.99 -5 4.98 -5 6 C-4.34 5.01 -3.68 4.02 -3 3 C-2.01 3 -1.02 3 0 3 C0 2.01 0 1.02 0 0 Z " fill="#AEC951" transform="translate(150,147)"/>
<path d="M0 0 C0.33 0 0.66 0 1 0 C1 4.62 1 9.24 1 14 C-6.33229406 14.12352247 -13.66398367 14.21430557 -20.99707031 14.2746582 C-23.49196928 14.29981494 -25.98679446 14.33394403 -28.48144531 14.37719727 C-32.06594028 14.43779434 -35.64946163 14.46619892 -39.234375 14.48828125 C-40.90956207 14.52699089 -40.90956207 14.52699089 -42.61859131 14.56648254 C-50.3815388 14.5692994 -50.3815388 14.5692994 -53.62597656 11.58276367 C-54.0794043 10.73045166 -54.53283203 9.87813965 -55 9 C-55.98230498 7.9826127 -56.97469597 6.97403883 -58 6 C-55.6875 6.1875 -55.6875 6.1875 -53 7 C-52.68119873 7.83168701 -52.36239746 8.66337402 -52.03393555 9.52026367 C-50.28689387 12.18327508 -50.28689387 12.18327508 -47.80142212 12.4437561 C-44.77964905 12.5807734 -41.7936464 12.56066229 -38.76953125 12.48828125 C-37.66397385 12.48120651 -36.55841644 12.47413177 -35.4193573 12.46684265 C-31.88305419 12.43882049 -28.34832574 12.37606379 -24.8125 12.3125 C-22.41734055 12.28742742 -20.02215632 12.26461245 -17.62695312 12.24414062 C-11.75069397 12.18896753 -5.87561408 12.10263771 0 12 C0 8.04 0 4.08 0 0 Z " fill="#AFBF61" transform="translate(151,95)"/>
<path d="M0 0 C0 0.33 0 0.66 0 1 C-1.423125 1.37125 -1.423125 1.37125 -2.875 1.75 C-6.97791658 2.90551528 -10.84739697 4.52824033 -14.765625 6.1953125 C-17 7 -17 7 -20 7 C-20 7.66 -20 8.32 -20 9 C-21.32 9 -22.64 9 -24 9 C-24 9.66 -24 10.32 -24 11 C-13.77 11 -3.54 11 7 11 C7 11.33 7 11.66 7 12 C-3.89 12 -14.78 12 -26 12 C-26.33 11.01 -26.66 10.02 -27 9 C-24.3155851 7.70157659 -21.62777896 6.41117141 -18.9375 5.125 C-18.18533203 4.76019531 -17.43316406 4.39539063 -16.65820312 4.01953125 C-4.83363971 -1.61121324 -4.83363971 -1.61121324 0 0 Z " fill="#B2C75B" transform="translate(85,26)"/>
<path d="M0 0 C1.11696762 0.00222061 2.23393524 0.00444122 3.38475037 0.00672913 C4.64598221 0.00680466 5.90721405 0.00688019 7.20666504 0.00695801 C8.59341979 0.01206542 9.98017414 0.01728142 11.3669281 0.02259827 C12.77797394 0.0244625 14.18902042 0.02588638 15.60006714 0.02688599 C19.3204272 0.03071072 23.04074845 0.04054062 26.76109314 0.05158997 C30.55482966 0.06180504 34.34857243 0.06638381 38.14231873 0.07142639 C45.59090416 0.08216294 53.03945758 0.09923882 60.48802185 0.12025452 C60.48802185 0.45025452 60.48802185 0.78025452 60.48802185 1.12025452 C40.02802185 1.12025452 19.56802185 1.12025452 -1.51197815 1.12025452 C-0.19197815 3.10025452 1.12802185 5.08025452 2.48802185 7.12025452 C0.05052185 6.37025452 0.05052185 6.37025452 -2.51197815 5.12025452 C-3.38697815 3.05775452 -3.38697815 3.05775452 -3.51197815 1.12025452 C-2.51197815 0.12025452 -2.51197815 0.12025452 0 0 Z " fill="#B0C060" transform="translate(90.51197814941406,93.87974548339844)"/>
<path d="M0 0 C5.94 0 11.88 0 18 0 C18 0.99 18 1.98 18 3 C15.73291675 3.8655047 13.46224921 4.71759315 11.1875 5.5625 C10.54490234 5.80935547 9.90230469 6.05621094 9.24023438 6.31054688 C4.33984375 8.11328125 4.33984375 8.11328125 1 7 C1.33 6.34 1.66 5.68 2 5 C4.0625 4.375 4.0625 4.375 6 4 C3.03 3.505 3.03 3.505 0 3 C0 2.01 0 1.02 0 0 Z " fill="#ABC941" transform="translate(142,191)"/>
<path d="M0 0 C31.68 0.495 31.68 0.495 64 1 C64 1.66 64 2.32 64 3 C61 4 61 4 58 3 C56.08345949 2.88340066 54.16327847 2.82333251 52.2434082 2.79467773 C51.06241043 2.77473251 49.88141266 2.75478729 48.66462708 2.73423767 C47.38955795 2.71752518 46.11448883 2.70081268 44.80078125 2.68359375 C43.49545944 2.66281265 42.19013763 2.64203156 40.84526062 2.62062073 C37.37817647 2.56547727 33.91103354 2.51603405 30.44384766 2.46777344 C26.90456931 2.4175019 23.36537611 2.36184537 19.82617188 2.30664062 C12.88418844 2.19915362 5.94212806 2.09768773 -1 2 C-0.67 1.34 -0.34 0.68 0 0 Z " fill="#9AB836" transform="translate(87,82)"/>
<path d="M0 0 C0.66 0.66 1.32 1.32 2 2 C4.62116174 2.26191638 4.62116174 2.26191638 7.671875 2.16015625 C8.81140625 2.14919922 9.9509375 2.13824219 11.125 2.12695312 C12.32125 2.10568359 13.5175 2.08441406 14.75 2.0625 C17.09889415 2.02788202 19.44786018 1.99778648 21.796875 1.97265625 C22.84198242 1.95468994 23.88708984 1.93672363 24.96386719 1.91821289 C28.06254444 2.00168482 30.95840766 2.41982337 34 3 C34 3.33 34 3.66 34 4 C21.79 4 9.58 4 -3 4 C-2.67 3.01 -2.34 2.02 -2 1 C-1.34 0.67 -0.68 0.34 0 0 Z " fill="#B1C651" transform="translate(36,58)"/>
<path d="M0 0 C13.53 0 27.06 0 41 0 C41.66 1.32 42.32 2.64 43 4 C42.01 3.34 41.02 2.68 40 2 C37.17562556 1.75902313 34.44122826 1.6270868 31.61328125 1.5859375 C30.79627243 1.56657135 29.97926361 1.5472052 29.13749695 1.5272522 C26.52927066 1.46749648 23.92100014 1.42108742 21.3125 1.375 C19.5436006 1.3368165 17.77471972 1.29776454 16.00585938 1.2578125 C11.67072341 1.16179832 7.3355004 1.07775265 3 1 C3.66 2.65 4.32 4.3 5 6 C5.66 6 6.32 6 7 6 C7.66 7.65 8.32 9.3 9 11 C7.87411986 10.04270084 6.7493285 9.08412105 5.625 8.125 C4.99851562 7.59132812 4.37203125 7.05765625 3.7265625 6.5078125 C2.44163349 5.38567993 1.20628025 4.20628025 0 3 C0 2.01 0 1.02 0 0 Z " fill="#B7C767" transform="translate(32,165)"/>
<path d="M0 0 C0.66 0 1.32 0 2 0 C1.125 3.875 1.125 3.875 0 5 C-1.44289787 5.09295815 -2.89029785 5.11746513 -4.33618164 5.11352539 C-5.71750023 5.11341209 -5.71750023 5.11341209 -7.12672424 5.11329651 C-8.12775681 5.10813522 -9.12878937 5.10297394 -10.16015625 5.09765625 C-11.17975937 5.0962413 -12.19936249 5.09482635 -13.24986267 5.09336853 C-16.52077107 5.08775097 -19.79161213 5.0751955 -23.0625 5.0625 C-25.27408756 5.05748726 -27.48567618 5.05292396 -29.69726562 5.04882812 C-35.13153357 5.03777584 -40.56576197 5.02102063 -46 5 C-46 4.67 -46 4.34 -46 4 C-45.16976318 3.97494385 -44.33952637 3.9498877 -43.48413086 3.92407227 C-25.07917353 3.40361098 -25.07917353 3.40361098 -6.6875 2.5625 C-5.57761719 2.50191406 -4.46773437 2.44132812 -3.32421875 2.37890625 C-2.17373047 2.19134766 -2.17373047 2.19134766 -1 2 C-0.67 1.34 -0.34 0.68 0 0 Z " fill="#B2C95C" transform="translate(152,57)"/>
<path d="M0 0 C11.88 0 23.76 0 36 0 C36 3.96 36 7.92 36 12 C35.01 12 34.02 12 33 12 C32.34 11.34 31.68 10.68 31 10 C31.99 7.36 32.98 4.72 34 2 C22.78 1.67 11.56 1.34 0 1 C0 0.67 0 0.34 0 0 Z " fill="#A7C23B" transform="translate(35,119)"/>
<path d="M0 0 C0 0.33 0 0.66 0 1 C-9.9 1.33 -19.8 1.66 -30 2 C-30.33 2.66 -30.66 3.32 -31 4 C-33.64 3.67 -36.28 3.34 -39 3 C-28.37257927 -2.6932611 -11.57211661 -2.6366848 0 0 Z " fill="#AEC35A" transform="translate(125,22)"/>
<path d="M0 0 C12.21 0 24.42 0 37 0 C37 0.33 37 0.66 37 1 C35.56164795 1.029729 35.56164795 1.029729 34.09423828 1.06005859 C30.54188447 1.13604145 26.98994424 1.2247693 23.43798828 1.31738281 C21.89965979 1.35570301 20.36124075 1.39055056 18.82275391 1.421875 C16.61327724 1.46746059 14.40442552 1.5254634 12.1953125 1.5859375 C11.16085495 1.60326431 11.16085495 1.60326431 10.10549927 1.62094116 C6.1079846 1.64951022 6.1079846 1.64951022 3 4 C2.01 3.34 1.02 2.68 0 2 C0 1.34 0 0.68 0 0 Z " fill="#A3BC3D" transform="translate(35,166)"/>
<path d="M0 0 C0.99 0.33 1.98 0.66 3 1 C2.67 2.32 2.34 3.64 2 5 C-6.91 5 -15.82 5 -25 5 C-25.66 3.68 -26.32 2.36 -27 1 C-26.01 1 -25.02 1 -24 1 C-24 1.99 -24 2.98 -24 4 C-16.41 3.67 -8.82 3.34 -1 3 C-0.67 2.01 -0.34 1.02 0 0 Z " fill="#B3C662" transform="translate(191,57)"/>
<path d="M0 0 C1.65 0 3.3 0 5 0 C5 0.66 5 1.32 5 2 C4.34 2 3.68 2 3 2 C3.515625 3.11375 4.03125 4.2275 4.5625 5.375 C5.036875 6.57125 5.51125 7.7675 6 9 C5.67 9.66 5.34 10.32 5 11 C5.66 11.33 6.32 11.66 7 12 C5.1875 11.8125 5.1875 11.8125 3 11 C0 6.82142857 0 6.82142857 0 4 C-0.66 4 -1.32 4 -2 4 C-1.33333333 2.66666667 -0.66666667 1.33333333 0 0 Z " fill="#ABC946" transform="translate(39,167)"/>
<path d="M0 0 C1.00023193 0.00523682 2.00046387 0.01047363 3.03100586 0.01586914 C4.1105957 0.0190918 5.19018555 0.02231445 6.30249023 0.02563477 C8.00695312 0.03820312 8.00695312 0.03820312 9.74584961 0.05102539 C11.45611328 0.05779297 11.45611328 0.05779297 13.20092773 0.06469727 C16.02845312 0.07652792 18.85587601 0.09301129 21.68334961 0.11352539 C21.68334961 0.44352539 21.68334961 0.77352539 21.68334961 1.11352539 C14.09334961 1.11352539 6.50334961 1.11352539 -1.31665039 1.11352539 C0.00334961 3.09352539 1.32334961 5.07352539 2.68334961 7.11352539 C0.24584961 6.36352539 0.24584961 6.36352539 -2.31665039 5.11352539 C-3.19165039 3.05102539 -3.19165039 3.05102539 -3.31665039 1.11352539 C-2.31665039 0.11352539 -2.31665039 0.11352539 0 0 Z " fill="#B5C969" transform="translate(90.316650390625,93.886474609375)"/>
<path d="M0 0 C0.33 0.66 0.66 1.32 1 2 C0.01 3.485 0.01 3.485 -1 5 C-1.66 5 -2.32 5 -3 5 C-3 4.34 -3 3.68 -3 3 C-8.28 2.67 -13.56 2.34 -19 2 C-19 1.67 -19 1.34 -19 1 C-12.63849395 0.34513908 -6.39628979 -0.12068471 0 0 Z " fill="#BEC85E" transform="translate(163,188)"/>
<path d="M0 0 C1.2065625 0.0309375 1.2065625 0.0309375 2.4375 0.0625 C2.7675 0.7225 3.0975 1.3825 3.4375 2.0625 C2.4475 3.5475 2.4475 3.5475 1.4375 5.0625 C0.7775 5.0625 0.1175 5.0625 -0.5625 5.0625 C-0.8925 6.0525 -1.2225 7.0425 -1.5625 8.0625 C-2.2225 8.0625 -2.8825 8.0625 -3.5625 8.0625 C-3.60491723 5.72955225 -3.60342937 3.39547433 -3.5625 1.0625 C-2.5625 0.0625 -2.5625 0.0625 0 0 Z " fill="#ABC33A" transform="translate(203.5625,142.9375)"/>
<path d="M0 0 C2.73035701 0.62012519 5.45920764 1.24590887 8.1875 1.875 C9.34088867 2.13603516 9.34088867 2.13603516 10.51757812 2.40234375 C14.50061254 3.32545044 18.24788383 4.33072186 22 6 C22 6.33 22 6.66 22 7 C20.33388095 7.042721 18.66617115 7.04063832 17 7 C16.67 6.67 16.34 6.34 16 6 C14.65252916 5.76924918 13.29622435 5.58846937 11.9375 5.4375 C10.638125 5.293125 9.33875 5.14875 8 5 C8 4.34 8 3.68 8 3 C5.36 2.67 2.72 2.34 0 2 C0 1.34 0 0.68 0 0 Z " fill="#AAC64F" transform="translate(130,22)"/>
<path d="M0 0 C0.99 0.33 1.98 0.66 3 1 C2.34 2.65 1.68 4.3 1 6 C-2.63 6 -6.26 6 -10 6 C-8.68 5.34 -7.36 4.68 -6 4 C-2.81293158 2.25260156 -2.81293158 2.25260156 0 0 Z " fill="#AFC347" transform="translate(164,165)"/>
<path d="M0 0 C0.33 0 0.66 0 1 0 C1.33 2.64 1.66 5.28 2 8 C7.28 8 12.56 8 18 8 C18 8.33 18 8.66 18 9 C17.02417969 9.06058594 16.04835937 9.12117187 15.04296875 9.18359375 C13.13451172 9.30927734 13.13451172 9.30927734 11.1875 9.4375 C9.92292969 9.51871094 8.65835938 9.59992188 7.35546875 9.68359375 C4.00818107 9.87184547 4.00818107 9.87184547 1 11 C0 10 0 10 -0.09765625 7.71484375 C-0.08605469 6.79832031 -0.07445312 5.88179688 -0.0625 4.9375 C-0.05347656 4.01839844 -0.04445312 3.09929687 -0.03515625 2.15234375 C-0.02355469 1.44207031 -0.01195312 0.73179688 0 0 Z " fill="#A2BB3F" transform="translate(166,122)"/>
<path d="M0 0 C0.66 0.33 1.32 0.66 2 1 C1.98839844 1.75925781 1.97679688 2.51851563 1.96484375 3.30078125 C1.95582031 4.29464844 1.94679688 5.28851563 1.9375 6.3125 C1.92589844 7.29863281 1.91429688 8.28476563 1.90234375 9.30078125 C1.87670138 12.09963849 1.87670138 12.09963849 3 15 C1.68 14.67 0.36 14.34 -1 14 C-1.02685938 11.85423363 -1.04633088 9.70837355 -1.0625 7.5625 C-1.07410156 6.36753906 -1.08570312 5.17257813 -1.09765625 3.94140625 C-1 1 -1 1 0 0 Z " fill="#AFC949" transform="translate(85,71)"/>
<path d="M0 0 C2.50037734 2.17424117 3.43628586 3.73045798 4 7 C2.35 7.66 0.7 8.32 -1 9 C-1.12375 8.360625 -1.2475 7.72125 -1.375 7.0625 C-1.684375 6.0415625 -1.684375 6.0415625 -2 5 C-2.66 4.67 -3.32 4.34 -4 4 C-3.67 3.01 -3.34 2.02 -3 1 C-2.34 1.33 -1.68 1.66 -1 2 C-0.67 2.99 -0.34 3.98 0 5 C0 3.35 0 1.7 0 0 Z " fill="#A7C243" transform="translate(204,77)"/>
<path d="M0 0 C0.33 0 0.66 0 1 0 C1.19491452 1.45736087 1.38069358 2.91594593 1.5625 4.375 C1.66691406 5.18710938 1.77132813 5.99921875 1.87890625 6.8359375 C2 9 2 9 1 11 C-0.65 10.67 -2.3 10.34 -4 10 C-2.68 6.7 -1.36 3.4 0 0 Z " fill="#ABC542" transform="translate(22,72)"/>
<path d="M0 0 C2 1 2 1 3.4375 2.5625 C5.01410534 4.33852827 5.01410534 4.33852827 8 4 C8 4.66 8 5.32 8 6 C4.04 5.67 0.08 5.34 -4 5 C-4 4.34 -4 3.68 -4 3 C-3.34 3 -2.68 3 -2 3 C-2 2.34 -2 1.68 -2 1 C-1.34 0.67 -0.68 0.34 0 0 Z " fill="#AECD46" transform="translate(160,52)"/>
<path d="M0 0 C0.66 0.99 1.32 1.98 2 3 C4.17610667 4.22196109 4.17610667 4.22196109 6.625 5.1875 C7.44226563 5.53167969 8.25953125 5.87585938 9.1015625 6.23046875 C9.72804688 6.48441406 10.35453125 6.73835937 11 7 C8.5332355 7.88336837 7.36140628 8.1312406 4.859375 7.22265625 C4.16328125 6.83980469 3.4671875 6.45695313 2.75 6.0625 C2.04359375 5.68222656 1.3371875 5.30195313 0.609375 4.91015625 C0.07828125 4.60980469 -0.4528125 4.30945313 -1 4 C-0.67 2.68 -0.34 1.36 0 0 Z " fill="#BBD66B" transform="translate(63,188)"/>
<path d="M0 0 C0.99 0 1.98 0 3 0 C1.71480435 2.86697492 0.42870746 4.97607712 -2 7 C-2.66 7 -3.32 7 -4 7 C-3.34 5.35 -2.68 3.7 -2 2 C-1.34 2 -0.68 2 0 2 C0 1.34 0 0.68 0 0 Z " fill="#B4CB58" transform="translate(188,168)"/>
<path d="M0 0 C0.99 0.33 1.98 0.66 3 1 C2.25 2.9375 2.25 2.9375 1 5 C-1.125 5.75 -1.125 5.75 -3 6 C-3 3 -3 3 -1.5 1.3125 C-0.7575 0.6628125 -0.7575 0.6628125 0 0 Z " fill="#A9BA58" transform="translate(34,55)"/>
<path d="M0 0 C-1 3 -1 3 -3.4375 4.75 C-4.7059375 5.36875 -4.7059375 5.36875 -6 6 C-6.66 5.67 -7.32 5.34 -8 5 C-3.375 0 -3.375 0 0 0 Z " fill="#B1C65D" transform="translate(43,49)"/>
<path d="" fill="#FFFFFF" transform="translate(0,0)"/>
<path d="" fill="#FFFFFF" transform="translate(0,0)"/>
<path d="" fill="#FFFFFF" transform="translate(0,0)"/>
<path d="" fill="#FFFFFF" transform="translate(0,0)"/>
<path d="" fill="#FFFFFF" transform="translate(0,0)"/>
<path d="" fill="#FFFFFF" transform="translate(0,0)"/>
<path d="" fill="#FFFFFF" transform="translate(0,0)"/>
<path d="" fill="#FFFFFF" transform="translate(0,0)"/>
<path d="" fill="#FFFFFF" transform="translate(0,0)"/>
<path d="" fill="#FFFFFF" transform="translate(0,0)"/>
<path d="" fill="#FFFFFF" transform="translate(0,0)"/>
<path d="" fill="#FFFFFF" transform="translate(0,0)"/>
<path d="" fill="#FFFFFF" transform="translate(0,0)"/>
<path d="" fill="#FFFFFF" transform="translate(0,0)"/>
<path d="" fill="#FFFFFF" transform="translate(0,0)"/>
<path d="" fill="#FFFFFF" transform="translate(0,0)"/>
<path d="" fill="#FFFFFF" transform="translate(0,0)"/>
<path d="" fill="#FFFFFF" transform="translate(0,0)"/>
<path d="" fill="#FFFFFF" transform="translate(0,0)"/>
<path d="" fill="#FFFFFF" transform="translate(0,0)"/>
<path d="" fill="#FFFFFF" transform="translate(0,0)"/>
<path d="" fill="#FFFFFF" transform="translate(0,0)"/>
<path d="" fill="#FFFFFF" transform="translate(0,0)"/>
<path d="" fill="#FFFFFF" transform="translate(0,0)"/>
<path d="" fill="#FFFFFF" transform="translate(0,0)"/>
<path d="" fill="#FFFFFF" transform="translate(0,0)"/>
<path d="" fill="#FFFFFF" transform="translate(0,0)"/>
<path d="" fill="#FFFFFF" transform="translate(0,0)"/>
<path d="" fill="#FFFFFF" transform="translate(0,0)"/>
<path d="" fill="#FFFFFF" transform="translate(0,0)"/>
<path d="" fill="#FFFFFF" transform="translate(0,0)"/>
<path d="" fill="#FFFFFF" transform="translate(0,0)"/>
<path d="" fill="#FFFFFF" transform="translate(0,0)"/>
<path d="" fill="#FFFFFF" transform="translate(0,0)"/>
<path d="" fill="#FFFFFF" transform="translate(0,0)"/>
<path d="" fill="#FFFFFF" transform="translate(0,0)"/>
<path d="" fill="#FFFFFF" transform="translate(0,0)"/>
<path d="" fill="#FFFFFF" transform="translate(0,0)"/>
<path d="" fill="#FFFFFF" transform="translate(0,0)"/>
<path d="" fill="#FFFFFF" transform="translate(0,0)"/>
<path d="" fill="#FFFFFF" transform="translate(0,0)"/>
<path d="" fill="#FFFFFF" transform="translate(0,0)"/>
<path d="" fill="#FFFFFF" transform="translate(0,0)"/>
<path d="" fill="#FFFFFF" transform="translate(0,0)"/>
<path d="" fill="#FFFFFF" transform="translate(0,0)"/>
<path d="" fill="#FFFFFF" transform="translate(0,0)"/>
<path d="" fill="#FFFFFF" transform="translate(0,0)"/>
<path d="" fill="#FFFFFF" transform="translate(0,0)"/>
</svg>
